<svg width="21" height="18" viewBox="0 0 21 18" xmlns="http://www.w3.org/2000/svg"><title>4EA4FF21-77F9-40E7-BE0D-468C4FDD7B69</title><path d="M21 2.13a8.098 8.098 0 0 1-2.479.715 4.518 4.518 0 0 0 1.901-2.51 8.721 8.721 0 0 1-2.74 1.104C16.896.553 15.773 0 14.537 0c-2.38 0-4.308 2.032-4.308 4.544 0 .353.038.702.109 1.031-3.574-.181-6.754-1.997-8.88-4.742-.37.67-.58 1.45-.58 2.284 0 1.573.758 2.973 1.916 3.776a4.126 4.126 0 0 1-1.95-.565v.063c0 2.196 1.484 4.03 3.455 4.455-.362.102-.744.15-1.139.15-.277 0-.54-.02-.806-.081.546 1.812 2.139 3.128 4.024 3.155A8.332 8.332 0 0 1 0 15.95 11.685 11.685 0 0 0 6.605 18c7.923 0 12.259-6.926 12.259-12.93a12.4 12.4 0 0 0-.014-.582A9.247 9.247 0 0 0 21 2.13z" fill="#B9C1C7" fill-rule="evenodd"/></svg>
