<?xml version="1.0" encoding="utf-8"?>
<!-- Generator: Adobe Illustrator 21.0.0, SVG Export Plug-In . SVG Version: 6.00 Build 0)  -->
<!DOCTYPE svg PUBLIC "-//W3C//DTD SVG 1.1//EN" "http://www.w3.org/Graphics/SVG/1.1/DTD/svg11.dtd">
<svg version="1.1" id="Layer_1" xmlns="http://www.w3.org/2000/svg" xmlns:xlink="http://www.w3.org/1999/xlink" x="0px" y="0px"
	 viewBox="0 0 17 18" style="enable-background:new 0 0 17 18;" xml:space="preserve">
<style type="text/css">
	.st0{fill-rule:evenodd;clip-rule:evenodd;fill:#C8CFD4;}
	.st1{fill:#C8CFD4;}
	.st2{font-family:'HelveticaNeue-Bold';}
	.st3{font-size:8px;}
</style>
<path class="st0" d="M3,4v2C2.2,6,2,6.6,2,7.4v7.1C2,15.4,2.7,16,3.5,16h9.9c0.8,0,1.5-0.6,1.5-1.4V7.4C15,6.6,14.8,6,14,6V4h1
	c1.1,0,2,0.9,2,2v10c0,1.1-0.9,2-2,2H2c-1.1,0-2-0.9-2-2V6c0-1.1,0.9-2,2-2C2,4,1.8,4,3,4z"/>
<path class="st0" d="M13,5v1.5C13,6.8,12.3,7,12,7c-0.3,0-1-0.2-1-0.5V5c0-2.2-0.3-3-2.5-3S6,2.8,6,5v1.5C6,6.8,5.3,7,5,7
	C4.7,7,4,6.8,4,6.5V5V4c0-2.2,1.8-4,4-4h1c2.2,0,4,1.8,4,4V5L13,5z"/>
<rect x="7" y="4" class="st0" width="3" height="2"/>
<text transform="matrix(1 0 0 1 6.167 13.8335)" class="st1 st2 st3">$</text>
</svg>
